<svg width="216" height="157" viewBox="0 0 216 157" fill="none" xmlns="http://www.w3.org/2000/svg">
<g filter="url(#filter0_d_101_5689)">
<path d="M30 68.5C30 47.237 47.237 30 68.5 30H127.143C148.603 30 166 47.3969 166 68.8571V107H68.5C47.237 107 30 89.763 30 68.5Z" fill="#6CB48F"/>
</g>
<path d="M80 69.86C80 72.15 78.82 74.18 77 75.46L75.66 78.41C75.35 79.08 74.45 79.21 73.98 78.64L72.5 76.86C70.64 76.86 68.93 76.23 67.63 75.18L68.23 74.47C72.85 74.12 76.5 70.46 76.5 66C76.5 65.24 76.39 64.49 76.19 63.77C78.46 64.97 80 67.25 80 69.86Z" fill="white"/>
<path d="M74.3 63.07C73.13 60.67 70.52 59 67.5 59C63.36 59 60 62.13 60 66C60 68.29 61.18 70.32 63 71.6L64.34 74.55C64.65 75.22 65.55 75.34 66.02 74.78L66.57 74.12L67.5 73C71.64 73 75 69.87 75 66C75 64.95 74.75 63.96 74.3 63.07ZM70 66.75H65C64.59 66.75 64.25 66.41 64.25 66C64.25 65.59 64.59 65.25 65 65.25H70C70.41 65.25 70.75 65.59 70.75 66C70.75 66.41 70.41 66.75 70 66.75Z" fill="white"/>
<path d="M91.6739 68.7C91.6739 67.464 91.9499 66.36 92.5019 65.388C93.0659 64.404 93.8279 63.642 94.7879 63.102C95.7599 62.55 96.8459 62.274 98.0459 62.274C99.4499 62.274 100.68 62.634 101.736 63.354C102.792 64.074 103.53 65.07 103.95 66.342H101.052C100.764 65.742 100.356 65.292 99.8279 64.992C99.3119 64.692 98.7119 64.542 98.0279 64.542C97.2959 64.542 96.6419 64.716 96.0659 65.064C95.5019 65.4 95.0579 65.88 94.7339 66.504C94.4219 67.128 94.2659 67.86 94.2659 68.7C94.2659 69.528 94.4219 70.26 94.7339 70.896C95.0579 71.52 95.5019 72.006 96.0659 72.354C96.6419 72.69 97.2959 72.858 98.0279 72.858C98.7119 72.858 99.3119 72.708 99.8279 72.408C100.356 72.096 100.764 71.64 101.052 71.04H103.95C103.53 72.324 102.792 73.326 101.736 74.046C100.692 74.754 99.4619 75.108 98.0459 75.108C96.8459 75.108 95.7599 74.838 94.7879 74.298C93.8279 73.746 93.0659 72.984 92.5019 72.012C91.9499 71.04 91.6739 69.936 91.6739 68.7ZM116.164 62.436V75H113.644V69.654H108.262V75H105.742V62.436H108.262V67.602H113.644V62.436H116.164ZM125.989 72.606H120.985L120.157 75H117.511L122.029 62.418H124.963L129.481 75H126.817L125.989 72.606ZM125.305 70.59L123.487 65.334L121.669 70.59H125.305ZM139.359 62.436V64.47H136.011V75H133.491V64.47H130.143V62.436H139.359Z" fill="white"/>
<defs>
<filter id="filter0_d_101_5689" x="0" y="0" width="216" height="157" filterUnits="userSpaceOnUse" color-interpolation-filters="sRGB">
<feFlood flood-opacity="0" result="BackgroundImageFix"/>
<feColorMatrix in="SourceAlpha" type="matrix" values="0 0 0 0 0 0 0 0 0 0 0 0 0 0 0 0 0 0 127 0" result="hardAlpha"/>
<feOffset dx="10" dy="10"/>
<feGaussianBlur stdDeviation="20"/>
<feComposite in2="hardAlpha" operator="out"/>
<feColorMatrix type="matrix" values="0 0 0 0 0.608854 0 0 0 0 0.617552 0 0 0 0 0.695833 0 0 0 0.25 0"/>
<feBlend mode="normal" in2="BackgroundImageFix" result="effect1_dropShadow_101_5689"/>
<feBlend mode="normal" in="SourceGraphic" in2="effect1_dropShadow_101_5689" result="shape"/>
</filter>
</defs>
</svg>
