<svg width="17" height="16" viewBox="0 0 17 16" fill="none" xmlns="http://www.w3.org/2000/svg">
<path d="M7.58254 1.11573C7.9307 0.312855 9.0693 0.312852 9.41745 1.11573L10.8449 4.40758C10.9898 4.74173 11.3049 4.97068 11.6675 5.00523L15.2393 5.34558C16.1105 5.4286 16.4624 6.51147 15.8064 7.09069L13.1167 9.46552C12.8437 9.70658 12.7234 10.077 12.8025 10.4325L13.5826 13.9347C13.7729 14.7889 12.8517 15.4582 12.0981 15.0133L9.00839 13.1891C8.69475 13.004 8.30525 13.004 7.99161 13.1891L4.90187 15.0133C4.14829 15.4582 3.22714 14.7889 3.4174 13.9347L4.19746 10.4325C4.27664 10.077 4.15628 9.70658 3.88326 9.46552L1.19364 7.09069C0.537639 6.51147 0.889483 5.4286 1.76065 5.34558L5.33249 5.00523C5.69507 4.97068 6.01019 4.74173 6.15509 4.40758L7.58254 1.11573Z" fill="#FBD243"/>
</svg>
